<svg xmlns="http://www.w3.org/2000/svg" width="256" height="256" viewBox="0 0 256 256">
  <path fill="#00758F" d="M235.648 194.212c-13.918-.347-24.705.218-33.752 1.832-2.61.486-6.798.486-7.1 2.017 1.39 1.391 1.6 3.656 2.785 5.585 2.177 3.656 5.955 8.57 9.373 11.13 3.656 2.784 7.312 5.57 11.187 8.009 6.835 4.147 14.49 6.617 21.104 10.824 3.874 2.436 7.73 5.569 11.604 8.137 1.918 1.391 3.136 3.656 5.57 4.531v-.437c-1.171-1.606-1.607-3.874-2.784-5.701-1.823-1.823-3.656-3.437-5.478-5.26-5.26-7.095-11.918-13.275-19.017-18.537-5.955-4.147-18.995-9.718-21.324-16.553l-.437-.437c4.147-.437 9.006-1.918 12.874-3.046 6.38-1.606 12.191-1.171 18.761-2.784 2.784-.814 5.701-1.606 8.486-2.595v-1.171c-3.138-3.299-5.478-7.73-8.702-10.734-8.923-7.961-18.641-15.923-28.712-22.495-5.478-3.656-12.438-6.026-18.241-9.146-2.045-1.171-5.588-1.606-6.798-3.437-3.138-3.874-4.884-8.923-7.312-13.505-5.154-9.718-10.171-20.538-14.708-30.907-3.138-7.095-5.154-14.189-9.006-20.777-18.241-31.115-38.017-49.92-68.488-68.458-6.617-3.874-14.49-5.478-22.932-7.529-4.531-.218-8.923-.656-13.454-.874-2.784-1.171-5.701-4.531-8.267-6.144C54.886 5.705 31.09-8.994 23.778 8.928c-4.765 11.391 6.907 22.495 10.996 28.257 2.784 3.874 6.44 8.268 8.486 12.624 1.171 2.784 1.391 5.701 2.436 8.702 2.394 6.835 4.531 14.49 7.748 20.777 1.606 3.138 3.437 6.483 5.479 9.373 1.171 1.823 3.437 2.61 3.874 5.588-2.175 3.138-2.393 7.748-3.656 11.605-5.914 18.449-3.656 41.381 4.765 55.002 2.611 4.147 8.702 13.286 17.104 9.718 7.312-3.138 5.701-12.191 7.748-20.341.486-1.918.181-3.138 1.171-4.531v.437c2.394 4.765 4.765 9.373 6.926 14.189 5.26 8.267 14.373 16.989 21.98 22.713 4.031 3.138 7.312 8.486 12.438 10.387v-.437h-.437c-1.171-1.606-2.61-2.395-4.147-3.656-3.138-3.138-6.617-7.095-9.137-10.734-7.529-10.171-14.144-21.324-20.122-32.934-2.784-5.914-5.26-12.385-7.529-18.241-1.171-2.177-1.171-5.478-2.784-6.617-2.61 3.874-6.44 7.095-8.267 11.918-3.437 7.529-3.656 16.771-4.884 26.489-.655.437-.218 0-.655.437-5.26-1.171-7.095-6.617-9.137-11.187-4.984-11.605-5.914-30.251-1.606-43.736 1.171-3.437 6.144-14.189 4.147-17.39-1.171-3.138-4.765-4.984-6.798-7.529-2.395-3.138-4.984-7.095-6.617-10.734-4.433-9.373-6.617-19.712-11.396-29.085-2.177-4.531-6.026-9.137-9.137-13.285-3.437-4.765-7.312-8.048-9.925-13.641-.874-1.918-2.177-5.043-.874-7.095.218-1.391.874-1.823 2.177-2.177 2.177-1.606 8.267.437 10.387 1.171 6.144 2.177 11.187 4.147 16.334 7.095 2.394 1.391 4.983 4.147 8.047 4.765h3.656c5.479 1.171 11.605.218 16.771 1.823 9.137 3.138 17.387 7.748 24.7 12.847 22.494 15.704 40.953 38.017 53.582 64.615 2.176 4.147 3.138 8.047 5.043 12.384 3.874 8.923 8.702 18.043 12.625 26.708 3.874 8.485 7.529 17.104 13.071 24.199 2.784 3.874 13.454 5.914 18.241 8.047 3.437 1.606 9.137 2.784 12.391 4.531 6.144 3.437 12.191 7.312 17.824 11.187 2.784 1.823 11.918 6.617 12.385 10.171z"/>
</svg> 