<svg xmlns="http://www.w3.org/2000/svg" viewBox="0 0 128 128">
  <defs>
    <linearGradient id="php-gradient" x1="64" y1="3" x2="64" y2="123" gradientUnits="userSpaceOnUse">
      <stop offset="0" stop-color="#8993BE"/>
      <stop offset="1" stop-color="#6181B6"/>
    </linearGradient>
  </defs>
  <path fill="url(#php-gradient)" d="M64 0C28.7 0 0 28.7 0 64s28.7 64 64 64 64-28.7 64-64S99.3 0 64 0zm0 10c29.8 0 54 24.2 54 54S93.8 118 64 118 10 93.8 10 64 34.2 10 64 10z"/>
  <path fill="#fff" d="M38 66.3h-8l-4.3 22H16L24.2 40h14.7c6.1 0 10.7 1.1 13.7 3.2s4 5.4 3.2 9.8c-.4 2.3-1.3 4.3-2.6 6.1-1.3 1.8-2.9 3.2-4.9 4.3-2 1.1-4.1 1.9-6.4 2.3-2.3.4-4.7.6-7.2.6h-3.3zm-6-10h7c2.1 0 3.8-.2 5-.7 1.2-.4 2.1-1.1 2.7-1.9.6-.8 1-1.8 1.2-2.9.3-1.7-.1-3-1.2-3.9-1.1-.9-2.9-1.4-5.3-1.4h-7.1l-2.3 10.8zm46.3-16.3H89l-4.3 22H75l4.3-22h-8.9l1.7-8h27.2l-1.7 8zm28 0h-8.9l-4.3 22h-9.7l4.3-22h-8.9l1.7-8h27.2l-1.7 8z"/>
</svg> 